<?xml version="1.0" standalone="no"?>
<!DOCTYPE svg PUBLIC "-//W3C//DTD SVG 20010904//EN"
 "http://www.w3.org/TR/2001/REC-SVG-20010904/DTD/svg10.dtd">
<svg version="1.0" xmlns="http://www.w3.org/2000/svg"
 width="300.000000pt" height="300.000000pt" viewBox="0 0 300.000000 300.000000"
 preserveAspectRatio="xMidYMid meet">
<metadata>
Created by potrace 1.10, written by Peter Selinger 2001-2011
</metadata>
<g transform="translate(0.000000,300.000000) scale(0.100000,-0.100000)"
fill="#000000" stroke="none">
<path d="M548 2311 c-62 -20 -103 -48 -130 -89 -30 -46 -20 -43 31 8 83 83
192 99 342 51 72 -24 163 -88 252 -179 58 -59 59 -60 44 -88 -8 -16 -22 -53
-31 -82 -16 -47 -22 -54 -66 -73 -93 -40 -111 -88 -75 -203 l17 -55 -31 -54
c-19 -34 -31 -68 -31 -92 0 -32 8 -45 59 -94 55 -55 58 -61 65 -119 14 -121
38 -149 132 -153 72 -2 80 -6 108 -53 48 -81 88 -92 193 -50 60 24 69 25 105
13 67 -22 73 -29 60 -82 -7 -25 -12 -61 -12 -79 0 -48 -9 -56 -77 -67 -34 -5
-75 -17 -92 -25 -16 -9 -35 -16 -41 -16 -14 0 -30 45 -36 100 -9 78 -22 98
-93 140 -79 47 -200 100 -296 130 -88 28 -170 74 -197 110 -24 34 -48 46 -48
25 0 -48 119 -127 250 -165 41 -13 122 -46 180 -75 170 -84 167 -82 174 -140
7 -64 35 -145 51 -151 7 -3 27 4 46 15 36 21 153 46 169 36 14 -9 27 24 35 90
4 33 14 74 23 90 19 38 85 103 118 115 31 12 94 13 94 2 0 -15 -44 -51 -85
-68 -28 -12 -35 -19 -23 -22 31 -6 127 28 162 58 40 36 48 37 41 7 -11 -41 34
-117 69 -117 11 0 12 8 5 38 -12 51 -12 50 17 44 24 -4 25 -8 19 -41 -11 -57
-95 -151 -136 -151 -11 0 -12 -2 -1 -9 15 -9 91 3 121 19 33 17 88 89 106 138
10 26 28 59 41 74 l22 27 42 -33 c23 -18 50 -46 61 -62 l19 -29 0 30 c0 42
-32 107 -65 133 -25 20 -26 22 -11 44 22 31 20 90 -4 121 -11 14 -20 38 -21
54 0 28 0 28 -12 5 -8 -19 -7 -30 7 -57 15 -27 17 -46 12 -97 -6 -57 -5 -67
15 -92 22 -28 22 -28 1 -17 -52 28 -82 4 -132 -100 -31 -66 -91 -140 -98 -121
-1 5 11 31 28 58 32 51 36 74 20 105 -13 23 -52 25 -70 4 -16 -19 -30 -10 -30
19 0 43 -28 53 -82 31 -11 -4 -18 0 -23 14 -4 15 -18 23 -46 27 -22 4 -38 11
-37 16 2 5 28 18 58 29 91 32 129 87 130 190 0 25 8 45 28 65 79 84 82 127 13
223 -22 31 -23 38 -13 75 6 23 14 64 17 91 6 45 4 52 -17 73 -14 12 -49 31
-79 41 -30 11 -57 25 -61 33 -13 27 -38 86 -38 92 0 16 25 2 69 -39 26 -25 53
-45 58 -45 6 0 35 11 64 24 67 29 110 37 221 42 117 5 191 27 241 73 48 45 59
103 32 166 -10 22 -17 44 -16 50 2 5 0 7 -4 3 -4 -4 -18 5 -31 20 -13 15 -24
22 -24 16 0 -5 14 -23 30 -39 62 -60 60 -147 -5 -204 -46 -40 -86 -50 -240
-60 -130 -9 -214 -29 -248 -59 -16 -14 -20 -12 -53 27 -59 68 -115 91 -262
103 -91 7 -134 15 -156 29 -17 10 -41 19 -54 19 -30 0 -91 -32 -121 -64 -20
-21 -27 -23 -44 -14 -11 6 -50 11 -86 11 l-66 0 -81 76 c-100 93 -176 140
-263 163 -85 22 -152 21 -223 -1z m940 -220 c20 -11 50 -32 65 -46 24 -23 32
-26 55 -16 28 11 78 16 122 13 31 -2 59 -46 75 -117 11 -48 13 -50 51 -55 21
-3 57 -15 79 -25 39 -20 40 -21 37 -69 -1 -26 -11 -69 -22 -94 l-20 -46 28
-30 c79 -84 82 -119 15 -186 -46 -46 -48 -50 -48 -107 -1 -105 -36 -145 -139
-159 -37 -5 -44 -11 -54 -38 -6 -17 -25 -48 -43 -68 -26 -33 -36 -38 -72 -38
-26 0 -58 10 -85 25 l-43 25 -37 -24 c-20 -14 -56 -30 -80 -37 -58 -17 -85 -1
-120 70 l-27 56 -45 -3 c-25 -2 -64 -1 -88 3 -53 8 -63 30 -63 126 0 67 0 67
-40 95 -22 15 -53 45 -69 67 -28 39 -29 41 -14 76 8 20 28 53 45 73 28 35 29
39 15 60 -8 13 -22 52 -31 86 -14 53 -14 66 -3 79 14 17 110 63 132 63 8 0 15
18 19 49 3 27 15 68 27 90 20 39 22 41 68 41 26 0 65 -5 87 -10 37 -9 42 -7
59 16 24 32 85 74 109 74 10 0 34 -9 55 -19z"/>
<path d="M1615 1752 c-33 -32 -38 -38 -145 -164 -40 -49 -80 -88 -88 -88 -8 0
-27 9 -43 21 -16 11 -44 23 -63 26 -29 5 -37 1 -62 -30 -31 -40 -39 -75 -21
-98 21 -28 200 -149 220 -149 18 0 65 42 112 100 84 103 164 199 183 220 39
43 64 89 58 108 -10 29 -59 71 -91 77 -24 5 -36 0 -60 -23z m94 -21 l44 -39
-164 -200 c-90 -110 -167 -201 -171 -201 -11 -1 -211 143 -215 155 -2 5 11 29
28 52 l31 42 31 -22 c18 -12 34 -25 37 -28 3 -3 18 -14 34 -24 l29 -18 22 28
c13 16 37 45 54 64 17 19 66 79 109 132 42 53 79 97 82 97 3 0 25 -17 49 -38z"/>
<path d="M524 2247 c-49 -14 -70 -30 -90 -68 -22 -44 -17 -46 24 -6 38 37 105
67 149 67 14 0 21 4 18 10 -8 13 -48 11 -101 -3z"/>
<path d="M615 2188 c-22 -56 -32 -273 -17 -385 13 -92 40 -178 71 -222 12 -16
21 -31 21 -34 0 -2 -27 -7 -60 -10 -35 -3 -76 -15 -101 -29 -58 -32 -63 -50
-8 -31 24 8 59 13 78 12 22 -2 35 1 34 8 -1 6 11 13 27 16 48 10 52 33 18 107
-16 36 -36 96 -44 134 -25 116 -18 363 12 459 11 36 -15 15 -31 -25z"/>
<path d="M2538 2154 c-7 -69 -29 -124 -70 -172 -29 -33 -36 -74 -18 -102 7
-11 10 -4 10 26 0 28 6 47 20 59 29 27 34 13 16 -46 -8 -29 -12 -56 -9 -59 3
-3 8 1 10 8 11 28 23 10 17 -25 -8 -49 -46 -124 -98 -193 -53 -69 -98 -143
-118 -195 -19 -48 -18 -42 -18 -107 l-1 -53 -19 24 c-18 20 -20 21 -20 5 1
-51 72 -154 106 -154 10 0 7 11 -8 37 -33 55 -37 191 -9 256 21 48 85 148 128
201 39 47 69 116 84 190 12 65 12 70 -9 108 -20 37 -20 42 -7 69 23 43 36 120
27 154 -8 27 -9 23 -14 -31z"/>
<path d="M505 1450 c-11 -4 -35 -14 -53 -20 -29 -11 -106 -79 -98 -87 2 -2 23
8 47 21 45 25 209 54 230 40 6 -3 -5 -18 -26 -32 -41 -30 -111 -131 -144 -211
-23 -55 -31 -163 -16 -212 6 -19 11 -9 27 50 20 77 62 169 110 239 31 45 25
57 -9 20 -41 -47 -68 -95 -95 -168 -23 -63 -27 -70 -27 -42 -1 63 55 169 151
285 l48 59 -20 25 c-11 14 -17 29 -14 34 7 11 -84 11 -111 -1z"/>
<path d="M604 1224 c-22 -52 -29 -153 -14 -200 14 -44 70 -147 76 -141 3 2 -3
32 -12 67 -19 76 -13 175 15 250 23 60 7 63 -25 5 l-22 -37 5 46 c7 55 -3 59
-23 10z"/>
</g>
</svg>
